<?xml version="1.0" encoding="iso-8859-1"?>
<!-- Generator: Adobe Illustrator 19.0.0, SVG Export Plug-In . SVG Version: 6.00 Build 0)  -->
<svg version="1.1" id="Layer_1" xmlns="http://www.w3.org/2000/svg" xmlns:xlink="http://www.w3.org/1999/xlink" x="0px" y="0px"
	 viewBox="0 0 512 512" style="enable-background:new 0 0 512 512;" xml:space="preserve">
<circle style="fill:#FF4F19;" cx="256" cy="256" r="256"/>
<path style="fill:#EE2600;" d="M505.154,315.004L382.076,191.926c-14.573-16.046-35.602-26.121-58.985-26.121
	c-0.143,0-0.284,0.008-0.426,0.009l-48.754-48.742c-16.799-18.313-40.928-29.794-67.738-29.794
	c-50.757,0-91.904,41.147-91.904,91.904c0,7.651,0.941,15.081,2.702,22.187c-50.439,0.372-91.214,41.369-91.214,91.895
	c0,26.764,11.444,50.852,29.701,67.648l145.036,145.036C218.368,509.899,236.938,512,256,512
	C377.076,512,478.509,427.942,505.154,315.004z"/>
<path style="fill:#FFFFFF;" d="M415.369,258.086h-13.624c0.655-4.112,1.005-8.325,1.005-12.621c0-43.995-35.665-79.66-79.66-79.66
	c-8.911,0-17.47,1.485-25.47,4.184c-4.612-46.441-43.793-82.712-91.447-82.712c-50.757,0-91.904,41.147-91.904,91.904
	c0,7.651,0.941,15.081,2.703,22.187c-50.439,0.372-91.214,41.369-91.214,91.895c0,50.757,41.147,91.904,91.904,91.904
	c1.176,0,2.346-0.03,3.511-0.073c0.953,0.043,1.91,0.073,2.874,0.073H415.37c34.947,0,63.54-28.593,63.54-63.54l0,0
	C478.909,286.679,450.316,258.086,415.369,258.086z"/>
<path style="fill:#E1E1E3;" d="M478.91,321.63c0,34.94-28.59,63.54-63.54,63.54H256V101.95c22.89,14.8,38.79,39.5,41.62,68.04
	c8-2.7,16.56-4.19,25.47-4.19c44,0,79.66,35.67,79.66,79.67c0,4.29-0.35,8.5-1,12.62h13.62c17.47,0,33.36,7.15,44.88,18.66
	C471.76,288.27,478.91,304.16,478.91,321.63z"/>
<g>
</g>
<g>
</g>
<g>
</g>
<g>
</g>
<g>
</g>
<g>
</g>
<g>
</g>
<g>
</g>
<g>
</g>
<g>
</g>
<g>
</g>
<g>
</g>
<g>
</g>
<g>
</g>
<g>
</g>
</svg>
