<?xml version="1.0" encoding="iso-8859-1"?>
<!-- Generator: Adobe Illustrator 19.0.0, SVG Export Plug-In . SVG Version: 6.00 Build 0)  -->
<svg version="1.1" id="Layer_1" xmlns="http://www.w3.org/2000/svg" xmlns:xlink="http://www.w3.org/1999/xlink" x="0px" y="0px"
	 viewBox="0 0 504 504" style="enable-background:new 0 0 504 504;" xml:space="preserve">
<circle style="fill:#90DFAA;" cx="252" cy="252" r="252"/>
<polygon style="fill:#FFFFFF;" points="183.7,376 75.4,338.2 149.7,179.5 211.4,190.7 "/>
<polygon style="fill:#E6E9EE;" points="183.7,376 298.1,338 276.5,179.5 211.4,190.7 "/>
<polygon style="fill:#FFFFFF;" points="434.8,376 298.1,338 276.5,179.5 344.9,190.7 "/>
<g>
	<polygon style="fill:#84DBFF;" points="326,207.4 279.1,198.8 294.3,310.5 382,334 	"/>
	<polygon style="fill:#84DBFF;" points="159.9,201.3 104.9,321.7 187.2,347.2 208.2,210 	"/>
</g>
<polygon style="fill:#54C0EB;" points="279.1,198.8 208.2,210 187.2,347.2 294.3,310.5 "/>
<path style="fill:#F1543F;" d="M331.8,139.9c0,45-81.5,143.3-81.5,143.3s-81.5-98.3-81.5-143.3s36.5-81.5,81.5-81.5
	S331.8,94.8,331.8,139.9z"/>
<circle style="fill:#FFFFFF;" cx="250.2" cy="133.2" r="41.3"/>
<g>
</g>
<g>
</g>
<g>
</g>
<g>
</g>
<g>
</g>
<g>
</g>
<g>
</g>
<g>
</g>
<g>
</g>
<g>
</g>
<g>
</g>
<g>
</g>
<g>
</g>
<g>
</g>
<g>
</g>
</svg>
